<mxfile host="Electron" agent="Mozilla/5.0 (Windows NT 10.0; Win64; x64) AppleWebKit/537.36 (KHTML, like Gecko) draw.io/24.7.17 Chrome/128.0.6613.36 Electron/32.0.1 Safari/537.36" version="24.7.17">
  <diagram id="C5RBs43oDa-KdzZeNtuy" name="Page-1">
    <mxGraphModel dx="1063" dy="511" grid="1" gridSize="10" guides="1" tooltips="1" connect="1" arrows="1" fold="1" page="1" pageScale="1" pageWidth="827" pageHeight="1169" math="0" shadow="0">
      <root>
        <mxCell id="WIyWlLk6GJQsqaUBKTNV-0" />
        <mxCell id="WIyWlLk6GJQsqaUBKTNV-1" parent="WIyWlLk6GJQsqaUBKTNV-0" />
        <mxCell id="xnb52xzzKEzazKa5-PdD-103" value="" style="rounded=0;whiteSpace=wrap;html=1;" vertex="1" parent="WIyWlLk6GJQsqaUBKTNV-1">
          <mxGeometry x="210" y="170" width="90" height="220" as="geometry" />
        </mxCell>
        <mxCell id="xnb52xzzKEzazKa5-PdD-0" value="Problem Definition" style="ellipse;whiteSpace=wrap;html=1;aspect=fixed;" vertex="1" parent="WIyWlLk6GJQsqaUBKTNV-1">
          <mxGeometry x="100" y="240" width="80" height="80" as="geometry" />
        </mxCell>
        <mxCell id="xnb52xzzKEzazKa5-PdD-1" value="&lt;span id=&quot;docs-internal-guid-f7c6a7ed-7fff-1ace-1ce9-4449cd99c372&quot;&gt;&lt;span style=&quot;background-color: transparent; font-variant-numeric: normal; font-variant-east-asian: normal; font-variant-alternates: normal; font-variant-position: normal; vertical-align: baseline; white-space-collapse: preserve;&quot;&gt;&lt;font color=&quot;#ffffff&quot; style=&quot;font-size: 12px;&quot; face=&quot;Helvetica&quot;&gt;S&amp;amp;P Global&lt;/font&gt;&lt;/span&gt;&lt;/span&gt;" style="ellipse;whiteSpace=wrap;html=1;aspect=fixed;" vertex="1" parent="WIyWlLk6GJQsqaUBKTNV-1">
          <mxGeometry x="227" y="250" width="60" height="60" as="geometry" />
        </mxCell>
        <mxCell id="xnb52xzzKEzazKa5-PdD-31" value="" style="edgeStyle=orthogonalEdgeStyle;rounded=0;orthogonalLoop=1;jettySize=auto;html=1;exitX=1;exitY=0.5;exitDx=0;exitDy=0;entryX=0;entryY=0.5;entryDx=0;entryDy=0;" edge="1" parent="WIyWlLk6GJQsqaUBKTNV-1" source="xnb52xzzKEzazKa5-PdD-36" target="xnb52xzzKEzazKa5-PdD-50">
          <mxGeometry relative="1" as="geometry">
            <mxPoint x="560" y="280" as="targetPoint" />
          </mxGeometry>
        </mxCell>
        <mxCell id="xnb52xzzKEzazKa5-PdD-37" value="" style="edgeStyle=orthogonalEdgeStyle;rounded=0;orthogonalLoop=1;jettySize=auto;html=1;" edge="1" parent="WIyWlLk6GJQsqaUBKTNV-1" source="xnb52xzzKEzazKa5-PdD-3" target="xnb52xzzKEzazKa5-PdD-36">
          <mxGeometry relative="1" as="geometry" />
        </mxCell>
        <mxCell id="xnb52xzzKEzazKa5-PdD-3" value="Data Cleaning &amp;amp; Merge" style="ellipse;whiteSpace=wrap;html=1;aspect=fixed;" vertex="1" parent="WIyWlLk6GJQsqaUBKTNV-1">
          <mxGeometry x="330" y="240" width="80" height="80" as="geometry" />
        </mxCell>
        <mxCell id="xnb52xzzKEzazKa5-PdD-35" value="" style="edgeStyle=orthogonalEdgeStyle;rounded=0;orthogonalLoop=1;jettySize=auto;html=1;" edge="1" parent="WIyWlLk6GJQsqaUBKTNV-1" source="xnb52xzzKEzazKa5-PdD-5" target="xnb52xzzKEzazKa5-PdD-34">
          <mxGeometry relative="1" as="geometry" />
        </mxCell>
        <mxCell id="xnb52xzzKEzazKa5-PdD-5" value="&lt;font style=&quot;font-size: 11px;&quot;&gt;Stationarity Check&lt;/font&gt;" style="ellipse;whiteSpace=wrap;html=1;direction=south;" vertex="1" parent="WIyWlLk6GJQsqaUBKTNV-1">
          <mxGeometry x="667" y="51" width="64" height="95" as="geometry" />
        </mxCell>
        <mxCell id="xnb52xzzKEzazKa5-PdD-7" value="FRED" style="ellipse;whiteSpace=wrap;html=1;aspect=fixed;" vertex="1" parent="WIyWlLk6GJQsqaUBKTNV-1">
          <mxGeometry x="227" y="320" width="60" height="60" as="geometry" />
        </mxCell>
        <mxCell id="xnb52xzzKEzazKa5-PdD-8" value="&lt;span id=&quot;docs-internal-guid-c853b265-7fff-511d-7519-27312310e417&quot;&gt;&lt;span style=&quot;background-color: transparent; font-variant-numeric: normal; font-variant-east-asian: normal; font-variant-alternates: normal; font-variant-position: normal; vertical-align: baseline; white-space-collapse: preserve;&quot;&gt;&lt;font style=&quot;font-size: 12px;&quot; color=&quot;#ffffff&quot;&gt;U.S. Census Bureau&lt;/font&gt;&lt;/span&gt;&lt;/span&gt;" style="ellipse;whiteSpace=wrap;html=1;aspect=fixed;" vertex="1" parent="WIyWlLk6GJQsqaUBKTNV-1">
          <mxGeometry x="227" y="180" width="60" height="60" as="geometry" />
        </mxCell>
        <mxCell id="xnb52xzzKEzazKa5-PdD-13" value="" style="endArrow=classic;html=1;rounded=0;exitX=1;exitY=0.5;exitDx=0;exitDy=0;entryX=0;entryY=0.5;entryDx=0;entryDy=0;" edge="1" parent="WIyWlLk6GJQsqaUBKTNV-1" source="xnb52xzzKEzazKa5-PdD-0" target="xnb52xzzKEzazKa5-PdD-103">
          <mxGeometry width="50" height="50" relative="1" as="geometry">
            <mxPoint x="210" y="280" as="sourcePoint" />
            <mxPoint x="200" y="280" as="targetPoint" />
          </mxGeometry>
        </mxCell>
        <mxCell id="xnb52xzzKEzazKa5-PdD-15" value="" style="endArrow=classic;html=1;rounded=0;entryX=0;entryY=0.5;entryDx=0;entryDy=0;" edge="1" parent="WIyWlLk6GJQsqaUBKTNV-1" target="xnb52xzzKEzazKa5-PdD-3">
          <mxGeometry width="50" height="50" relative="1" as="geometry">
            <mxPoint x="300" y="280" as="sourcePoint" />
            <mxPoint x="500" y="220" as="targetPoint" />
          </mxGeometry>
        </mxCell>
        <mxCell id="xnb52xzzKEzazKa5-PdD-42" value="" style="edgeStyle=orthogonalEdgeStyle;rounded=0;orthogonalLoop=1;jettySize=auto;html=1;" edge="1" parent="WIyWlLk6GJQsqaUBKTNV-1" source="xnb52xzzKEzazKa5-PdD-34" target="xnb52xzzKEzazKa5-PdD-41">
          <mxGeometry relative="1" as="geometry" />
        </mxCell>
        <mxCell id="xnb52xzzKEzazKa5-PdD-34" value="&lt;font style=&quot;font-size: 10px;&quot;&gt;ACF/PACF &amp;amp; Decomposition&lt;/font&gt;" style="ellipse;whiteSpace=wrap;html=1;direction=south;" vertex="1" parent="WIyWlLk6GJQsqaUBKTNV-1">
          <mxGeometry x="749" y="51" width="70" height="95" as="geometry" />
        </mxCell>
        <mxCell id="xnb52xzzKEzazKa5-PdD-36" value="Datatype handling" style="ellipse;whiteSpace=wrap;html=1;aspect=fixed;" vertex="1" parent="WIyWlLk6GJQsqaUBKTNV-1">
          <mxGeometry x="440" y="240" width="80" height="80" as="geometry" />
        </mxCell>
        <mxCell id="xnb52xzzKEzazKa5-PdD-92" style="edgeStyle=orthogonalEdgeStyle;rounded=0;orthogonalLoop=1;jettySize=auto;html=1;entryX=0.5;entryY=1;entryDx=0;entryDy=0;" edge="1" parent="WIyWlLk6GJQsqaUBKTNV-1" target="xnb52xzzKEzazKa5-PdD-38">
          <mxGeometry relative="1" as="geometry">
            <mxPoint x="650" y="221" as="targetPoint" />
            <mxPoint x="650" y="241" as="sourcePoint" />
            <Array as="points">
              <mxPoint x="650" y="220" />
              <mxPoint x="753" y="220" />
            </Array>
          </mxGeometry>
        </mxCell>
        <mxCell id="xnb52xzzKEzazKa5-PdD-38" value="Column Rename&lt;div&gt;(Prophet)&lt;/div&gt;" style="ellipse;whiteSpace=wrap;html=1;direction=south;" vertex="1" parent="WIyWlLk6GJQsqaUBKTNV-1">
          <mxGeometry x="753" y="176" width="60" height="90" as="geometry" />
        </mxCell>
        <mxCell id="xnb52xzzKEzazKa5-PdD-39" value="" style="endArrow=classic;html=1;rounded=0;entryX=0.5;entryY=1;entryDx=0;entryDy=0;" edge="1" parent="WIyWlLk6GJQsqaUBKTNV-1" target="xnb52xzzKEzazKa5-PdD-5">
          <mxGeometry width="50" height="50" relative="1" as="geometry">
            <mxPoint x="650" y="221" as="sourcePoint" />
            <mxPoint x="670" y="101" as="targetPoint" />
            <Array as="points">
              <mxPoint x="650" y="99" />
            </Array>
          </mxGeometry>
        </mxCell>
        <mxCell id="xnb52xzzKEzazKa5-PdD-41" value="&lt;span style=&quot;font-size: 10px;&quot;&gt;Order Determination&lt;/span&gt;" style="ellipse;whiteSpace=wrap;html=1;direction=south;" vertex="1" parent="WIyWlLk6GJQsqaUBKTNV-1">
          <mxGeometry x="836" y="51" width="70" height="95" as="geometry" />
        </mxCell>
        <mxCell id="xnb52xzzKEzazKa5-PdD-72" style="edgeStyle=orthogonalEdgeStyle;rounded=0;orthogonalLoop=1;jettySize=auto;html=1;entryX=0;entryY=0.5;entryDx=0;entryDy=0;exitX=1;exitY=0.25;exitDx=0;exitDy=0;" edge="1" parent="WIyWlLk6GJQsqaUBKTNV-1" source="xnb52xzzKEzazKa5-PdD-46" target="xnb52xzzKEzazKa5-PdD-66">
          <mxGeometry relative="1" as="geometry" />
        </mxCell>
        <mxCell id="xnb52xzzKEzazKa5-PdD-75" style="edgeStyle=orthogonalEdgeStyle;rounded=0;orthogonalLoop=1;jettySize=auto;html=1;entryX=0;entryY=0.5;entryDx=0;entryDy=0;exitX=0.5;exitY=0;exitDx=0;exitDy=0;" edge="1" parent="WIyWlLk6GJQsqaUBKTNV-1" source="xnb52xzzKEzazKa5-PdD-46" target="xnb52xzzKEzazKa5-PdD-65">
          <mxGeometry relative="1" as="geometry" />
        </mxCell>
        <mxCell id="xnb52xzzKEzazKa5-PdD-77" style="edgeStyle=orthogonalEdgeStyle;rounded=0;orthogonalLoop=1;jettySize=auto;html=1;entryX=0.5;entryY=1;entryDx=0;entryDy=0;exitX=1;exitY=0.75;exitDx=0;exitDy=0;" edge="1" parent="WIyWlLk6GJQsqaUBKTNV-1" source="xnb52xzzKEzazKa5-PdD-46" target="xnb52xzzKEzazKa5-PdD-56">
          <mxGeometry relative="1" as="geometry" />
        </mxCell>
        <mxCell id="xnb52xzzKEzazKa5-PdD-78" style="edgeStyle=orthogonalEdgeStyle;rounded=0;orthogonalLoop=1;jettySize=auto;html=1;entryX=0;entryY=0.5;entryDx=0;entryDy=0;exitX=0.5;exitY=1;exitDx=0;exitDy=0;" edge="1" parent="WIyWlLk6GJQsqaUBKTNV-1" source="xnb52xzzKEzazKa5-PdD-46" target="xnb52xzzKEzazKa5-PdD-67">
          <mxGeometry relative="1" as="geometry" />
        </mxCell>
        <mxCell id="xnb52xzzKEzazKa5-PdD-46" value="Train-Test Split" style="shape=hexagon;perimeter=hexagonPerimeter2;whiteSpace=wrap;html=1;fixedSize=1;" vertex="1" parent="WIyWlLk6GJQsqaUBKTNV-1">
          <mxGeometry x="940" y="250" width="100" height="60" as="geometry" />
        </mxCell>
        <mxCell id="xnb52xzzKEzazKa5-PdD-50" value="Set Date as Index" style="ellipse;whiteSpace=wrap;html=1;aspect=fixed;" vertex="1" parent="WIyWlLk6GJQsqaUBKTNV-1">
          <mxGeometry x="550" y="240" width="80" height="80" as="geometry" />
        </mxCell>
        <mxCell id="xnb52xzzKEzazKa5-PdD-52" value="MinMax&lt;div&gt;Scalar&lt;/div&gt;&lt;div&gt;(LSTM)&lt;/div&gt;" style="ellipse;whiteSpace=wrap;html=1;direction=south;" vertex="1" parent="WIyWlLk6GJQsqaUBKTNV-1">
          <mxGeometry x="759" y="301" width="60" height="90" as="geometry" />
        </mxCell>
        <mxCell id="xnb52xzzKEzazKa5-PdD-76" style="edgeStyle=orthogonalEdgeStyle;rounded=0;orthogonalLoop=1;jettySize=auto;html=1;entryX=0;entryY=0.5;entryDx=0;entryDy=0;" edge="1" parent="WIyWlLk6GJQsqaUBKTNV-1" source="xnb52xzzKEzazKa5-PdD-56" target="xnb52xzzKEzazKa5-PdD-68">
          <mxGeometry relative="1" as="geometry" />
        </mxCell>
        <mxCell id="xnb52xzzKEzazKa5-PdD-56" value="Reshape Input to 3D" style="ellipse;whiteSpace=wrap;html=1;direction=south;" vertex="1" parent="WIyWlLk6GJQsqaUBKTNV-1">
          <mxGeometry x="1070" y="285" width="60" height="90" as="geometry" />
        </mxCell>
        <mxCell id="xnb52xzzKEzazKa5-PdD-58" value="" style="endArrow=classic;html=1;rounded=0;entryX=0.5;entryY=1;entryDx=0;entryDy=0;" edge="1" parent="WIyWlLk6GJQsqaUBKTNV-1" target="xnb52xzzKEzazKa5-PdD-52">
          <mxGeometry width="50" height="50" relative="1" as="geometry">
            <mxPoint x="650" y="221" as="sourcePoint" />
            <mxPoint x="650" y="201" as="targetPoint" />
            <Array as="points">
              <mxPoint x="650" y="346" />
            </Array>
          </mxGeometry>
        </mxCell>
        <mxCell id="xnb52xzzKEzazKa5-PdD-59" value="" style="endArrow=classic;html=1;rounded=0;entryX=0;entryY=0.5;entryDx=0;entryDy=0;exitX=0.5;exitY=0;exitDx=0;exitDy=0;" edge="1" parent="WIyWlLk6GJQsqaUBKTNV-1" source="xnb52xzzKEzazKa5-PdD-38" target="xnb52xzzKEzazKa5-PdD-46">
          <mxGeometry width="50" height="50" relative="1" as="geometry">
            <mxPoint x="600" y="310" as="sourcePoint" />
            <mxPoint x="650" y="260" as="targetPoint" />
            <Array as="points">
              <mxPoint x="920" y="221" />
              <mxPoint x="920" y="280" />
            </Array>
          </mxGeometry>
        </mxCell>
        <mxCell id="xnb52xzzKEzazKa5-PdD-61" value="" style="endArrow=none;html=1;rounded=0;entryX=0.5;entryY=0;entryDx=0;entryDy=0;" edge="1" parent="WIyWlLk6GJQsqaUBKTNV-1" target="xnb52xzzKEzazKa5-PdD-41">
          <mxGeometry width="50" height="50" relative="1" as="geometry">
            <mxPoint x="920" y="221" as="sourcePoint" />
            <mxPoint x="650" y="201" as="targetPoint" />
            <Array as="points">
              <mxPoint x="920" y="99" />
            </Array>
          </mxGeometry>
        </mxCell>
        <mxCell id="xnb52xzzKEzazKa5-PdD-63" value="" style="endArrow=none;html=1;rounded=0;exitX=0.5;exitY=0;exitDx=0;exitDy=0;" edge="1" parent="WIyWlLk6GJQsqaUBKTNV-1" source="xnb52xzzKEzazKa5-PdD-52">
          <mxGeometry width="50" height="50" relative="1" as="geometry">
            <mxPoint x="600" y="251" as="sourcePoint" />
            <mxPoint x="920" y="221" as="targetPoint" />
            <Array as="points">
              <mxPoint x="920" y="346" />
            </Array>
          </mxGeometry>
        </mxCell>
        <mxCell id="xnb52xzzKEzazKa5-PdD-79" style="edgeStyle=orthogonalEdgeStyle;rounded=0;orthogonalLoop=1;jettySize=auto;html=1;entryX=0.5;entryY=1;entryDx=0;entryDy=0;exitX=1;exitY=0.5;exitDx=0;exitDy=0;" edge="1" parent="WIyWlLk6GJQsqaUBKTNV-1" source="xnb52xzzKEzazKa5-PdD-66" target="xnb52xzzKEzazKa5-PdD-69">
          <mxGeometry relative="1" as="geometry" />
        </mxCell>
        <mxCell id="xnb52xzzKEzazKa5-PdD-65" value="SARIMA/SARIMAX" style="rounded=1;whiteSpace=wrap;html=1;" vertex="1" parent="WIyWlLk6GJQsqaUBKTNV-1">
          <mxGeometry x="1170" y="110" width="120" height="60" as="geometry" />
        </mxCell>
        <mxCell id="xnb52xzzKEzazKa5-PdD-66" value="Facebook Prophet" style="rounded=1;whiteSpace=wrap;html=1;" vertex="1" parent="WIyWlLk6GJQsqaUBKTNV-1">
          <mxGeometry x="1170" y="200" width="120" height="60" as="geometry" />
        </mxCell>
        <mxCell id="xnb52xzzKEzazKa5-PdD-67" value="ML Model" style="rounded=1;whiteSpace=wrap;html=1;" vertex="1" parent="WIyWlLk6GJQsqaUBKTNV-1">
          <mxGeometry x="1170" y="390" width="120" height="60" as="geometry" />
        </mxCell>
        <mxCell id="xnb52xzzKEzazKa5-PdD-82" style="edgeStyle=orthogonalEdgeStyle;rounded=0;orthogonalLoop=1;jettySize=auto;html=1;entryX=0.5;entryY=1;entryDx=0;entryDy=0;" edge="1" parent="WIyWlLk6GJQsqaUBKTNV-1" source="xnb52xzzKEzazKa5-PdD-68" target="xnb52xzzKEzazKa5-PdD-69">
          <mxGeometry relative="1" as="geometry" />
        </mxCell>
        <mxCell id="xnb52xzzKEzazKa5-PdD-68" value="LSTM" style="rounded=1;whiteSpace=wrap;html=1;" vertex="1" parent="WIyWlLk6GJQsqaUBKTNV-1">
          <mxGeometry x="1170" y="300" width="120" height="60" as="geometry" />
        </mxCell>
        <mxCell id="xnb52xzzKEzazKa5-PdD-86" value="" style="edgeStyle=orthogonalEdgeStyle;rounded=0;orthogonalLoop=1;jettySize=auto;html=1;" edge="1" parent="WIyWlLk6GJQsqaUBKTNV-1" source="xnb52xzzKEzazKa5-PdD-69" target="xnb52xzzKEzazKa5-PdD-71">
          <mxGeometry relative="1" as="geometry" />
        </mxCell>
        <mxCell id="xnb52xzzKEzazKa5-PdD-69" value="Validate the Forecast" style="rounded=0;whiteSpace=wrap;html=1;direction=south;" vertex="1" parent="WIyWlLk6GJQsqaUBKTNV-1">
          <mxGeometry x="1340" y="235" width="80" height="90" as="geometry" />
        </mxCell>
        <mxCell id="xnb52xzzKEzazKa5-PdD-71" value="" style="image;aspect=fixed;html=1;points=[];align=center;fontSize=12;image=img/lib/azure2/general/Dashboard2.svg;" vertex="1" parent="WIyWlLk6GJQsqaUBKTNV-1">
          <mxGeometry x="1460" y="243.94" width="102.17" height="72.12" as="geometry" />
        </mxCell>
        <mxCell id="xnb52xzzKEzazKa5-PdD-84" value="" style="endArrow=none;html=1;rounded=0;entryX=1;entryY=0.5;entryDx=0;entryDy=0;" edge="1" parent="WIyWlLk6GJQsqaUBKTNV-1" target="xnb52xzzKEzazKa5-PdD-65">
          <mxGeometry width="50" height="50" relative="1" as="geometry">
            <mxPoint x="1315" y="230" as="sourcePoint" />
            <mxPoint x="1295" y="140" as="targetPoint" />
            <Array as="points">
              <mxPoint x="1315" y="190" />
              <mxPoint x="1315" y="140" />
            </Array>
          </mxGeometry>
        </mxCell>
        <mxCell id="xnb52xzzKEzazKa5-PdD-85" value="" style="endArrow=none;html=1;rounded=0;" edge="1" parent="WIyWlLk6GJQsqaUBKTNV-1">
          <mxGeometry width="50" height="50" relative="1" as="geometry">
            <mxPoint x="1290" y="420" as="sourcePoint" />
            <mxPoint x="1315" y="330" as="targetPoint" />
            <Array as="points">
              <mxPoint x="1315" y="420" />
            </Array>
          </mxGeometry>
        </mxCell>
        <mxCell id="xnb52xzzKEzazKa5-PdD-87" value="&lt;font style=&quot;font-size: 12px;&quot;&gt;&lt;b&gt;Dashboard&lt;/b&gt;&lt;/font&gt;" style="text;html=1;align=center;verticalAlign=middle;resizable=0;points=[];autosize=1;strokeColor=none;fillColor=none;" vertex="1" parent="WIyWlLk6GJQsqaUBKTNV-1">
          <mxGeometry x="1466.08" y="213.94" width="90" height="30" as="geometry" />
        </mxCell>
        <mxCell id="xnb52xzzKEzazKa5-PdD-98" value="" style="edgeStyle=orthogonalEdgeStyle;rounded=0;orthogonalLoop=1;jettySize=auto;html=1;" edge="1" parent="WIyWlLk6GJQsqaUBKTNV-1" source="xnb52xzzKEzazKa5-PdD-95" target="xnb52xzzKEzazKa5-PdD-96">
          <mxGeometry relative="1" as="geometry" />
        </mxCell>
        <mxCell id="xnb52xzzKEzazKa5-PdD-95" value="Feature Engineering" style="ellipse;whiteSpace=wrap;html=1;direction=south;" vertex="1" parent="WIyWlLk6GJQsqaUBKTNV-1">
          <mxGeometry x="700" y="411" width="71" height="100" as="geometry" />
        </mxCell>
        <mxCell id="xnb52xzzKEzazKa5-PdD-96" value="Feature Scaling &amp;amp; Encoding" style="ellipse;whiteSpace=wrap;html=1;direction=south;" vertex="1" parent="WIyWlLk6GJQsqaUBKTNV-1">
          <mxGeometry x="819" y="411" width="71" height="100" as="geometry" />
        </mxCell>
        <mxCell id="xnb52xzzKEzazKa5-PdD-97" value="" style="endArrow=classic;html=1;rounded=0;entryX=0.5;entryY=1;entryDx=0;entryDy=0;" edge="1" parent="WIyWlLk6GJQsqaUBKTNV-1" target="xnb52xzzKEzazKa5-PdD-95">
          <mxGeometry width="50" height="50" relative="1" as="geometry">
            <mxPoint x="650" y="341" as="sourcePoint" />
            <mxPoint x="790" y="221" as="targetPoint" />
            <Array as="points">
              <mxPoint x="650" y="461" />
            </Array>
          </mxGeometry>
        </mxCell>
        <mxCell id="xnb52xzzKEzazKa5-PdD-101" value="" style="endArrow=none;html=1;rounded=0;exitX=1;exitY=0.5;exitDx=0;exitDy=0;" edge="1" parent="WIyWlLk6GJQsqaUBKTNV-1" source="xnb52xzzKEzazKa5-PdD-50">
          <mxGeometry width="50" height="50" relative="1" as="geometry">
            <mxPoint x="740" y="330" as="sourcePoint" />
            <mxPoint x="650" y="280" as="targetPoint" />
          </mxGeometry>
        </mxCell>
        <mxCell id="xnb52xzzKEzazKa5-PdD-102" value="" style="endArrow=none;html=1;rounded=0;exitX=0.5;exitY=0;exitDx=0;exitDy=0;" edge="1" parent="WIyWlLk6GJQsqaUBKTNV-1">
          <mxGeometry width="50" height="50" relative="1" as="geometry">
            <mxPoint x="890.0000000000118" y="458" as="sourcePoint" />
            <mxPoint x="920" y="347" as="targetPoint" />
            <Array as="points">
              <mxPoint x="920" y="458" />
            </Array>
          </mxGeometry>
        </mxCell>
        <mxCell id="xnb52xzzKEzazKa5-PdD-104" value="Data Source" style="text;html=1;align=center;verticalAlign=middle;whiteSpace=wrap;rounded=0;" vertex="1" parent="WIyWlLk6GJQsqaUBKTNV-1">
          <mxGeometry x="219.5" y="140" width="75" height="30" as="geometry" />
        </mxCell>
      </root>
    </mxGraphModel>
  </diagram>
</mxfile>
